<svg width="36" height="29" viewBox="0 0 36 29" fill="none" xmlns="http://www.w3.org/2000/svg">
<path d="M28.2857 10.2857C28.2857 4.60044 21.9576 0 14.1429 0C6.32813 0 0 4.60044 0 10.2857C0 13.5402 2.08929 16.4531 5.34375 18.3415C4.66071 20.0089 3.77679 20.7924 2.9933 21.6764C2.77232 21.9375 2.51116 22.1786 2.59152 22.5603C2.65179 22.9018 2.93304 23.1429 3.23438 23.1429C3.25446 23.1429 3.27455 23.1429 3.29464 23.1429C3.89732 23.0625 4.47991 22.9621 5.02232 22.8214C7.05134 22.2991 8.93973 21.4353 10.6071 20.25C11.7321 20.4509 12.9174 20.5714 14.1429 20.5714C21.9576 20.5714 28.2857 15.971 28.2857 10.2857ZM36 15.4286C36 12.0737 33.7902 9.10044 30.3951 7.23214C30.6964 8.21651 30.8571 9.24107 30.8571 10.2857C30.8571 13.8817 29.0089 17.1964 25.654 19.6473C22.5402 21.8973 18.4621 23.1429 14.1429 23.1429C13.5603 23.1429 12.9576 23.1027 12.375 23.0625C14.8862 24.7098 18.221 25.7143 21.8571 25.7143C23.0826 25.7143 24.2679 25.5938 25.3929 25.3929C27.0603 26.5781 28.9487 27.442 30.9777 27.9643C31.5201 28.1049 32.1027 28.2054 32.7054 28.2857C33.0268 28.3259 33.3281 28.0647 33.4085 27.7031C33.4888 27.3214 33.2277 27.0804 33.0067 26.8192C32.2232 25.9353 31.3393 25.1518 30.6563 23.4844C33.9107 21.596 36 18.7031 36 15.4286Z" fill="#282C35"/>
</svg>
