<svg width="50" height="50" viewBox="0 0 50 50" fill="none" xmlns="http://www.w3.org/2000/svg">
<path d="M25.4375 2C19.2215 2 13.2601 4.4693 8.86468 8.86468C4.4693 13.2601 2 19.2215 2 25.4375C2 31.6535 4.4693 37.6149 8.86468 42.0103C13.2601 46.4057 19.2215 48.875 25.4375 48.875C31.6535 48.875 37.6149 46.4057 42.0103 42.0103C46.4057 37.6149 48.875 31.6535 48.875 25.4375C48.875 19.2215 46.4057 13.2601 42.0103 8.86468C37.6149 4.4693 31.6535 2 25.4375 2V2ZM24.5586 3.43848V11.8703C21.1109 12.1115 12.4079 14.9318 12.153 24.5586H4.10986C4.34307 8.42871 18.9446 3.78633 24.5586 3.43848ZM26.3164 3.52383C26.3746 3.53926 26.4285 3.55605 26.4746 3.57461C34.1719 6.66807 34.71 24.7775 33.9982 29.7516L30.434 27.5237C30.7744 24.1683 30.3459 14.5699 26.3164 12.2037V3.52383V3.52383ZM4.4666 26.3164H12.8646C14.7675 27.8271 20.4164 29.6937 29.1637 28.8027L32.8453 31.1038C16.3936 32.96 6.41914 28.897 4.4668 26.3164H4.4666Z" fill="#282C35"/>
</svg>
