<svg width="73" height="66" viewBox="0 0 73 66" fill="none" xmlns="http://www.w3.org/2000/svg">
<path d="M10.2827 47.2439L17.1166 57.8053C17.2118 57.9387 17.2955 58.068 17.3686 58.1933M10.2827 47.2439C10.1792 46.9333 9.66149 46.4984 8.41897 47.2439C7.17646 47.9894 3.96665 49.8325 2.51705 50.6608C2.10288 50.7644 1.39879 51.3442 1.8958 52.8352L9.35086 63.7072C9.55794 64.3285 10.2827 65.3846 11.5253 64.6391L17.1166 60.9116C17.5946 60.6248 18.2491 59.7024 17.3686 58.1933M10.2827 47.2439V41.6526C10.1792 41.1349 10.2827 39.7889 11.5253 38.5464C12.7678 37.3039 16.1847 34.094 17.7378 32.6444C18.1118 32.3951 18.8233 32.0858 19.6016 32.0958M14.9422 50.6608C21.1547 46.4364 20.637 40.4101 19.6016 37.925L22.3972 41.6526C25.9052 42.6845 26.5145 40.7889 26.3238 39.1675M23.6397 35.44L21.1547 32.6444C20.6601 32.2487 20.1163 32.1025 19.6016 32.0958M23.6397 35.44L26.1248 38.2357C26.2126 38.5167 26.2849 38.8364 26.3238 39.1675M23.6397 35.44L26.3238 33.8296M30.7842 36.3719C32.7722 33.1414 29.9558 32.5409 28.2992 32.6444L26.3238 33.8296M30.7842 36.3719L26.3238 39.1675M30.7842 36.3719C32.4409 36.3719 35.2572 37.1174 33.2692 40.0994M33.2692 40.0994L26.1248 44.4482C25.7106 45.7943 25.5656 48.6106 28.2992 49.1076M33.2692 40.0994C36.2512 40.8449 36.3755 43.1022 36.0649 44.1376M28.2992 49.1076L36.0649 44.1376M28.2992 49.1076C28.2992 50.2466 28.7962 52.7109 30.7842 53.4564M36.0649 44.1376C39.0469 46.1255 38.3428 48.2793 37.618 49.1076L30.7842 53.4564M30.7842 53.4564C29.5417 54.4918 26.1248 56.5006 22.3972 56.2521C18.6697 56.0036 17.4917 57.4427 17.3686 58.1933M19.6016 32.0958V28.9168M19.6016 28.9168H26.3238M19.6016 28.9168C18.9803 29.0204 17.7378 28.3577 17.7378 24.8787C17.7378 21.3996 17.7378 16.8023 17.7378 14.9386C17.8414 14.4208 18.3591 13.3854 19.6016 13.3854C20.8441 13.3854 25.5035 13.3854 27.6779 13.3854C27.8725 13.4341 28.1312 13.5605 28.2992 13.784M26.3238 28.9168V33.8296M26.3238 28.9168C27.4771 28.9168 28.1212 27.6743 28.2992 27.053M28.2992 27.053V14.9386C28.5626 14.4117 28.4886 14.0361 28.2992 13.784M28.2992 27.053L58.1194 40.0994M28.2992 13.784L59.0513 1.58156M59.0513 1.58156C59.9832 1.06385 62.2197 0.339051 63.7107 1.58156V40.0994C62.9859 41.3419 60.853 43.0814 58.1194 40.0994M59.0513 1.58156L58.1194 40.0994M66.5064 14.9386L71.1658 11.5218M66.5064 21.4619H72.7189M66.5064 27.985L71.1658 31.402M36.0649 17.4237V23.3256C35.6507 24.4646 34.2632 26.0592 32.0267 23.3256M53.46 21.1512C55.6965 23.1392 54.3919 24.5681 53.46 24.8787H49.7325V21.1512M53.46 21.1512H49.7325M53.46 21.1512C55.448 19.6602 54.2884 18.1485 53.46 17.4237H49.7325V21.1512M43.2093 17.4237C41.3455 17.4237 39.4818 18.9768 39.4818 21.4619C39.4818 23.9469 41.0349 24.8787 43.2093 24.8787C45.3837 24.8787 46.6262 23.3256 46.6262 21.4619C46.6262 19.5981 45.6943 17.4237 43.2093 17.4237Z" stroke="black" stroke-width="1.5"/>
</svg>
