<svg width="36" height="29" viewBox="0 0 36 29" fill="none" xmlns="http://www.w3.org/2000/svg">
<path d="M3.6 28.8C2.61 28.8 1.7628 28.4478 1.0584 27.7434C0.3528 27.0378 0 26.19 0 25.2V3.6C0 2.61 0.3528 1.7628 1.0584 1.0584C1.7628 0.3528 2.61 0 3.6 0H32.4C33.39 0 34.2378 0.3528 34.9434 1.0584C35.6478 1.7628 36 2.61 36 3.6V25.2C36 26.19 35.6478 27.0378 34.9434 27.7434C34.2378 28.4478 33.39 28.8 32.4 28.8H3.6ZM18 16.2L3.6 7.2V25.2H32.4V7.2L18 16.2ZM18 12.6L32.4 3.6H3.6L18 12.6ZM3.6 7.2V3.6V25.2V7.2Z" fill="#282C35"/>
</svg>
