<svg width="17" height="17" viewBox="0 0 17 17" fill="none" xmlns="http://www.w3.org/2000/svg">
<path d="M15.9092 4.25004C15.3637 4.49796 14.7758 4.66087 14.1667 4.73879C14.79 4.36337 15.2717 3.76837 15.4983 3.05296C14.9104 3.40712 14.2587 3.65504 13.5717 3.79671C13.0121 3.18754 12.2258 2.83337 11.3333 2.83337C9.66874 2.83337 8.30874 4.19337 8.30874 5.87212C8.30874 6.11296 8.33707 6.34671 8.38665 6.56629C5.86499 6.43879 3.61957 5.22754 2.12499 3.39296C1.8629 3.83921 1.71415 4.36337 1.71415 4.91587C1.71415 5.97129 2.2454 6.90629 3.06707 7.43754C2.56415 7.43754 2.09665 7.29587 1.68582 7.08337V7.10462C1.68582 8.57796 2.73415 9.81046 4.12249 10.0867C3.67675 10.2087 3.2088 10.2257 2.7554 10.1363C2.94779 10.7401 3.32458 11.2685 3.83279 11.6471C4.341 12.0257 4.9551 12.2356 5.58874 12.2471C4.51464 13.0974 3.18323 13.5571 1.81332 13.5505C1.57249 13.5505 1.33165 13.5363 1.09082 13.508C2.43665 14.3721 4.03749 14.875 5.75165 14.875C11.3333 14.875 14.4004 10.2425 14.4004 6.22629C14.4004 6.09171 14.4004 5.96421 14.3933 5.82962C14.9883 5.40462 15.4983 4.86629 15.9092 4.25004V4.25004Z" fill="#282C35"/>
</svg>
