<svg width="17" height="17" viewBox="0 0 17 17" fill="none" xmlns="http://www.w3.org/2000/svg">
<path d="M5.52496 1.41663H11.475C13.7416 1.41663 15.5833 3.25829 15.5833 5.52496V11.475C15.5833 12.5646 15.1505 13.6095 14.38 14.38C13.6095 15.1505 12.5646 15.5833 11.475 15.5833H5.52496C3.25829 15.5833 1.41663 13.7416 1.41663 11.475V5.52496C1.41663 4.43536 1.84947 3.39039 2.61993 2.61993C3.39039 1.84947 4.43536 1.41663 5.52496 1.41663M5.38329 2.83329C4.70699 2.83329 4.05839 3.10195 3.58017 3.58017C3.10195 4.05839 2.83329 4.70699 2.83329 5.38329V11.6166C2.83329 13.0262 3.97371 14.1666 5.38329 14.1666H11.6166C12.2929 14.1666 12.9415 13.898 13.4197 13.4197C13.898 12.9415 14.1666 12.2929 14.1666 11.6166V5.38329C14.1666 3.97371 13.0262 2.83329 11.6166 2.83329H5.38329ZM12.2187 3.89579C12.4535 3.89579 12.6787 3.98908 12.8448 4.15513C13.0108 4.32117 13.1041 4.54638 13.1041 4.78121C13.1041 5.01604 13.0108 5.24125 12.8448 5.40729C12.6787 5.57334 12.4535 5.66663 12.2187 5.66663C11.9839 5.66663 11.7587 5.57334 11.5926 5.40729C11.4266 5.24125 11.3333 5.01604 11.3333 4.78121C11.3333 4.54638 11.4266 4.32117 11.5926 4.15513C11.7587 3.98908 11.9839 3.89579 12.2187 3.89579ZM8.49996 4.95829C9.43927 4.95829 10.3401 5.33143 11.0043 5.99562C11.6685 6.65981 12.0416 7.56065 12.0416 8.49996C12.0416 9.43927 11.6685 10.3401 11.0043 11.0043C10.3401 11.6685 9.43927 12.0416 8.49996 12.0416C7.56065 12.0416 6.65981 11.6685 5.99562 11.0043C5.33143 10.3401 4.95829 9.43927 4.95829 8.49996C4.95829 7.56065 5.33143 6.65981 5.99562 5.99562C6.65981 5.33143 7.56065 4.95829 8.49996 4.95829M8.49996 6.37496C7.93637 6.37496 7.39587 6.59884 6.99736 6.99736C6.59884 7.39587 6.37496 7.93637 6.37496 8.49996C6.37496 9.06354 6.59884 9.60405 6.99736 10.0026C7.39587 10.4011 7.93637 10.625 8.49996 10.625C9.06354 10.625 9.60405 10.4011 10.0026 10.0026C10.4011 9.60405 10.625 9.06354 10.625 8.49996C10.625 7.93637 10.4011 7.39587 10.0026 6.99736C9.60405 6.59884 9.06354 6.37496 8.49996 6.37496Z" fill="#282C35"/>
</svg>
