<svg width="50" height="50" viewBox="0 0 50 50" fill="none" xmlns="http://www.w3.org/2000/svg">
<path d="M42.025 14.0625H38.1479L28.6354 23.5708C28.963 24.4058 28.9932 25.3281 28.7207 26.1827C28.4483 27.0373 27.8899 27.772 27.1395 28.2633C26.389 28.7546 25.4923 28.9725 24.6001 28.8804C23.7079 28.7883 22.8746 28.3918 22.2403 27.7576C21.6061 27.1233 21.2096 26.29 21.1175 25.3978C21.0254 24.5056 21.2433 23.6089 21.7346 22.8584C22.2259 22.108 22.9606 21.5496 23.8152 21.2772C24.6698 21.0047 25.5921 21.0349 26.4271 21.3625L35.9375 11.8521V7.975C35.9377 7.45621 36.1437 6.95869 36.5104 6.59167L40.1146 2.9875C40.1811 2.92018 40.2649 2.87236 40.3567 2.84922C40.4485 2.82609 40.5449 2.82852 40.6354 2.85625C40.8208 2.91042 40.9583 3.06459 40.9958 3.25417L41.9542 8.04792L46.7458 9.00625C46.9333 9.04375 47.0875 9.18125 47.1417 9.36667C47.169 9.45674 47.1714 9.55254 47.1487 9.64388C47.126 9.73522 47.0789 9.8187 47.0125 9.88542L43.4062 13.4896C43.225 13.6712 43.0097 13.8152 42.7726 13.9135C42.5356 14.0119 42.2816 14.0625 42.025 14.0625V14.0625Z" fill="#FFDE59"/>
<path d="M5.46875 25C5.46875 30.18 7.5265 35.1479 11.1893 38.8107C14.8521 42.4735 19.82 44.5313 25 44.5313C27.5649 44.5313 30.1046 44.0261 32.4743 43.0445C34.8439 42.063 36.997 40.6243 38.8107 38.8107C40.6243 36.997 42.063 34.8439 43.0445 32.4743C44.0261 30.1047 44.5312 27.5649 44.5312 25C44.5312 23.1292 44.2687 21.3208 43.7792 19.6104C43.6818 19.2177 43.7407 18.8025 43.9432 18.4523C44.1458 18.1021 44.4764 17.8441 44.8653 17.7326C45.2542 17.6211 45.6713 17.6649 46.0286 17.8546C46.386 18.0444 46.6558 18.3654 46.7812 18.75C47.3521 20.7375 47.6562 22.8333 47.6562 25C47.6562 37.5125 37.5125 47.6563 25 47.6563C12.4875 47.6563 2.34375 37.5125 2.34375 25C2.34375 12.4875 12.4875 2.34376 25 2.34376C27.1146 2.34168 29.2167 2.63543 31.25 3.21668C31.4483 3.27229 31.6336 3.36654 31.7953 3.49401C31.957 3.62148 32.0919 3.77966 32.1923 3.95944C32.2926 4.13923 32.3565 4.33708 32.3801 4.54163C32.4038 4.74617 32.3868 4.95337 32.3301 5.15132C32.2734 5.34927 32.1781 5.53406 32.0498 5.69507C31.9214 5.85608 31.7625 5.99014 31.5822 6.08953C31.4019 6.18892 31.2037 6.25169 30.999 6.27422C30.7943 6.29676 30.5872 6.27862 30.3896 6.22084C28.6369 5.72028 26.8228 5.46714 25 5.46876C19.82 5.46876 14.8521 7.52651 11.1893 11.1893C7.5265 14.8522 5.46875 19.82 5.46875 25V25Z" fill="#FFDE59"/>
<path d="M14.8437 25.0001C14.8496 26.3799 15.1365 27.7441 15.6872 29.0093C16.2378 30.2745 17.0405 31.4143 18.0463 32.3589C19.0522 33.3035 20.2399 34.0333 21.5372 34.5035C22.8344 34.9738 24.2139 35.1747 25.5914 35.0941C26.9689 35.0134 28.3155 34.6528 29.549 34.0344C30.7825 33.4159 31.877 32.5525 32.7657 31.497C33.6543 30.4414 34.3186 29.2158 34.7178 27.8949C35.117 26.5741 35.2428 25.1857 35.0875 23.8146C35.0437 23.537 35.0759 23.2526 35.1806 22.9917C35.2853 22.7308 35.4586 22.5031 35.6822 22.3327C35.9058 22.1623 36.1713 22.0556 36.4506 22.0238C36.7299 21.992 37.0126 22.0363 37.2687 22.1521C37.7917 22.3855 38.1437 22.8834 38.1896 23.4542C38.513 26.1943 37.9748 28.9671 36.6498 31.3872C35.3247 33.8073 33.2785 35.7545 30.7958 36.9581C28.313 38.1617 25.5169 38.5619 22.7962 38.103C20.0755 37.6442 17.5653 36.3492 15.6146 34.398C13.6644 32.4489 12.369 29.9412 11.9082 27.2227C11.4473 24.5043 11.8439 21.7098 13.0427 19.2268C14.2416 16.7439 16.1835 14.6955 18.5989 13.3659C21.0144 12.0362 23.7837 11.4912 26.5229 11.8063C26.73 11.8255 26.9311 11.8859 27.1146 11.9838C27.298 12.0818 27.4601 12.2154 27.5912 12.3768C27.7224 12.5382 27.82 12.7241 27.8783 12.9238C27.9366 13.1234 27.9546 13.3326 27.931 13.5392C27.9074 13.7459 27.8428 13.9457 27.741 14.127C27.6392 14.3084 27.5022 14.4676 27.3381 14.5953C27.174 14.723 26.986 14.8167 26.7852 14.8708C26.5844 14.9249 26.3748 14.9384 26.1687 14.9105C24.7459 14.746 23.3043 14.8842 21.9387 15.3162C20.573 15.7481 19.3141 16.464 18.2447 17.4168C17.1752 18.3696 16.3193 19.5378 15.7332 20.8447C15.1471 22.1516 14.844 23.5677 14.8437 25.0001V25.0001Z" fill="#FFDE59"/>
</svg>
