<svg width="44" height="64" viewBox="0 0 44 64" fill="none" xmlns="http://www.w3.org/2000/svg">
<path fill-rule="evenodd" clip-rule="evenodd" d="M3.12195 0H35.3821V5.20325H33.3008V2.0813H5.20325V26.0163H27.4596V28.0976H3.12195V0ZM34.3415 13.5285C35.1695 13.5285 35.9635 13.1995 36.549 12.6141C37.1345 12.0286 37.4634 11.2345 37.4634 10.4065C37.4634 9.57851 37.1345 8.78443 36.549 8.19895C35.9635 7.61347 35.1695 7.28455 34.3415 7.28455C33.5135 7.28455 32.7194 7.61347 32.1339 8.19895C31.5484 8.78443 31.2195 9.57851 31.2195 10.4065C31.2195 11.2345 31.5484 12.0286 32.1339 12.6141C32.7194 13.1995 33.5135 13.5285 34.3415 13.5285ZM36.455 15.6202C37.8068 15.6202 38.8766 16.2279 39.577 17.1666C40.2315 18.0459 40.5084 19.1334 40.5708 20.1376C40.632 21.1678 40.4916 22.1999 40.1577 23.1763C39.8455 24.0817 39.3178 25.0183 38.5041 25.6604V35.9024C38.5048 36.2946 38.3579 36.6727 38.0926 36.9615C37.8272 37.2503 37.4629 37.4287 37.072 37.4611C36.6812 37.4935 36.2924 37.3776 35.9832 37.1364C35.6739 36.8952 35.4667 36.5464 35.4029 36.1595L34.0605 28.0976H33.7504L32.2331 36.1897C32.1611 36.5716 31.9491 36.9129 31.6388 37.1468C31.3284 37.3808 30.9419 37.4905 30.5549 37.4546C30.1679 37.4187 29.8083 37.2397 29.5463 36.9526C29.2842 36.6656 29.1387 36.2911 29.1382 35.9024V21.0555C28.9301 21.3725 28.7247 21.6913 28.5221 22.0118L28.441 22.1398L28.4202 22.1731L28.415 22.1825C28.2747 22.4077 28.0794 22.5934 27.8474 22.7222C27.6154 22.8509 27.3545 22.9184 27.0892 22.9182H21.8859C21.4719 22.9182 21.0749 22.7538 20.7821 22.461C20.4894 22.1683 20.3249 21.7713 20.3249 21.3573C20.3249 20.9433 20.4894 20.5462 20.7821 20.2535C21.0749 19.9608 21.4719 19.7963 21.8859 19.7963H26.2327C26.4856 19.405 26.8186 18.8972 27.1683 18.3873C27.5325 17.8555 27.9342 17.2925 28.2922 16.8513C28.4659 16.6358 28.6605 16.4111 28.8562 16.2269C28.9519 16.1363 29.0851 16.0187 29.2475 15.9147C29.534 15.7266 29.8684 15.6248 30.2111 15.6212L36.455 15.6202Z" fill="#282C35"/>
<path d="M12.4878 64.0002H9.36585V59.3173H3.12195V64.0002H0V59.3173C0.0008265 58.4895 0.330011 57.6959 0.915311 57.1106C1.50061 56.5253 2.29421 56.1961 3.12195 56.1953H9.36585C10.1936 56.1961 10.9872 56.5253 11.5725 57.1106C12.1578 57.6959 12.487 58.4895 12.4878 59.3173V64.0002ZM43.7073 64.0002H40.5854V59.3173H34.3415V64.0002H31.2195V59.3173C31.2203 58.4895 31.5495 57.6959 32.1348 57.1106C32.7201 56.5253 33.5137 56.1961 34.3415 56.1953H40.5854C41.4131 56.1961 42.2067 56.5253 42.792 57.1106C43.3773 57.6959 43.7065 58.4895 43.7073 59.3173V64.0002ZM28.0976 64.0002H24.9756V59.3173H18.7317V64.0002H15.6098V59.3173C15.6106 58.4895 15.9398 57.6959 16.5251 57.1106C17.1104 56.5253 17.904 56.1961 18.7317 56.1953H24.9756C25.8034 56.1961 26.597 56.5253 27.1823 57.1106C27.7676 57.6959 28.0967 58.4895 28.0976 59.3173V64.0002Z" fill="#282C35"/>
<path d="M21.8537 54.634C23.5779 54.634 24.9756 53.2363 24.9756 51.5121C24.9756 49.7879 23.5779 48.3901 21.8537 48.3901C20.1295 48.3901 18.7317 49.7879 18.7317 51.5121C18.7317 53.2363 20.1295 54.634 21.8537 54.634Z" fill="#282C35"/>
<path d="M6.2439 54.634C7.96811 54.634 9.36585 53.2363 9.36585 51.5121C9.36585 49.7879 7.96811 48.3901 6.2439 48.3901C4.51969 48.3901 3.12195 49.7879 3.12195 51.5121C3.12195 53.2363 4.51969 54.634 6.2439 54.634Z" fill="#282C35"/>
<path d="M37.4634 54.634C39.1876 54.634 40.5854 53.2363 40.5854 51.5121C40.5854 49.7879 39.1876 48.3901 37.4634 48.3901C35.7392 48.3901 34.3415 49.7879 34.3415 51.5121C34.3415 53.2363 35.7392 54.634 37.4634 54.634Z" fill="#282C35"/>
<path d="M29.6585 48.3904C31.3827 48.3904 32.7805 46.9926 32.7805 45.2684C32.7805 43.5442 31.3827 42.1465 29.6585 42.1465C27.9343 42.1465 26.5366 43.5442 26.5366 45.2684C26.5366 46.9926 27.9343 48.3904 29.6585 48.3904Z" fill="#282C35"/>
<path d="M14.0488 48.3904C15.773 48.3904 17.1707 46.9926 17.1707 45.2684C17.1707 43.5442 15.773 42.1465 14.0488 42.1465C12.3246 42.1465 10.9268 43.5442 10.9268 45.2684C10.9268 46.9926 12.3246 48.3904 14.0488 48.3904Z" fill="#282C35"/>
</svg>
