<svg width="50" height="50" viewBox="0 0 50 50" fill="none" xmlns="http://www.w3.org/2000/svg">
<g clip-path="url(#clip0_471_17)">
<path d="M25 31.9446C28.8353 31.9446 31.9444 28.8354 31.9444 25.0001C31.9444 21.1648 28.8353 18.0557 25 18.0557C21.1647 18.0557 18.0555 21.1648 18.0555 25.0001C18.0555 28.8354 21.1647 31.9446 25 31.9446Z" fill="#FFDE59"/>
<path d="M27.5 5.1725V0H22.5V5.1725C18.1004 5.73338 14.0116 7.73934 10.8755 10.8755C7.73934 14.0116 5.73338 18.1004 5.1725 22.5H0V27.5H5.1725C5.73297 31.8997 7.7388 35.9887 10.875 39.125C14.0113 42.2612 18.1003 44.267 22.5 44.8275V50H27.5V44.8275C31.8997 44.267 35.9887 42.2612 39.125 39.125C42.2612 35.9887 44.267 31.8997 44.8275 27.5H50V22.5H44.8275C44.2666 18.1004 42.2607 14.0116 39.1245 10.8755C35.9884 7.73934 31.8996 5.73338 27.5 5.1725ZM25 40C16.7275 40 10 33.2725 10 25C10 16.7275 16.7275 10 25 10C33.2725 10 40 16.7275 40 25C40 33.2725 33.2725 40 25 40Z" fill="#FFDE59"/>
</g>
<defs>
<clipPath id="clip0_471_17">
<rect width="50" height="50" fill="white"/>
</clipPath>
</defs>
</svg>
